<svg xmlns="http://www.w3.org/2000/svg" width="62.209" height="62.209" viewBox="0 0 62.209 62.209"><defs><style>.a,.d{fill:none;}.a{stroke:#fff;stroke-width:2px;}.b{fill:#fff;}.c{stroke:none;}</style></defs><g transform="translate(-27 -216)"><g class="a" transform="translate(27 216)"><circle class="c" cx="31.104" cy="31.104" r="31.104"/><circle class="d" cx="31.104" cy="31.104" r="30.104"/></g><path class="b" d="M-661.646,0h-6.241a8.773,8.773,0,0,0,.453-2.791c0-4.807-8.694-21.167-8.782-21.332-.013.026-2.23,4.188-4.429,8.928V-27h19V0Z" transform="translate(731.646 259)"/><path class="b" d="M6.552-47.865S13.1-35.57,13.1-31.951A6.552,6.552,0,0,1,6.552-25.4,6.552,6.552,0,0,1,0-31.951C0-35.57,6.552-47.865,6.552-47.865Z" transform="translate(48.877 286.567)"/></g></svg>